<svg xmlns="http://www.w3.org/2000/svg" width="512" height="563" viewBox="0 0 512 563" preserveAspectRatio="none"><g clip-rule="evenodd"><path fill-rule="evenodd" fill="#15180A" d="M513 363v98c-.66 5.648-1.268 11.303-1.993 16.943-1.113 8.662-2.307 17.313-3.467 25.97-7.242-24.303-14.683-48.007-25.109-70.87-1.688 5.818-2.817 11.514-3.38 17.265-.793 8.117-.963 16.299-1.873 24.399-.214 1.904-2.022 4.633-3.643 5.102-1.695.49-4.523-.787-5.985-2.196-1.69-1.63-3.063-4.139-3.454-6.456-.909-5.371-1.172-10.854-1.647-16.295-.521-5.945-.335-12.041-1.614-17.814-2.552-11.512-8.367-21.401-16.698-29.866-2.402 12.646-4.56 24.854-7.074 36.989-2.346 11.319-5.818 21.921-14.94 30.261-3.408 3.116-5.105 8.911-6.017 13.777-1.648 8.808-1.873 17.87-3.148 26.762-1.442 10.052-3.388 20.031-5.115 30.043-1.729-1.895-2.539-3.863-2.872-5.91-3.021-18.552-5.905-37.126-8.949-55.674-1.127-6.869-3.549-13.237-9.236-17.715-4.884-3.844-9.827-2.534-11.826 3.301-1.113 3.251-1.126 6.861-1.897 10.251-.729 3.207-1.361 6.572-2.885 9.414-.927 1.73-3.577 3.721-5.236 3.545-1.707-.18-4.214-2.676-4.507-4.465-.823-5.015-1.165-10.218-.833-15.291.858-13.114 2.287-26.191 3.229-39.302.188-2.621-.769-5.323-1.367-9.042-5.517 4.841-9.909 8.833-14.451 12.646-6.984 5.863-10.957 13.391-11.93 22.318-.664 6.099-.578 12.283-.738 18.433-.549 20.966-.775 41.945-1.728 62.892-.359 7.9-2.361 15.727-3.614 23.586h-1c-8.665-12.305-13.109-26.514-16.801-40.731-3.204-12.339-4.082-25.269-6.262-37.891-1.751-10.138-3.702-20.254-6.055-30.266-.523-2.229-3.096-3.976-4.726-5.944-1.44 2.061-3.012 4.045-4.265 6.214-.64 1.106-.86 2.525-1.009 3.834-1.666 14.715-3.188 29.446-4.951 44.149-.79 6.595-2.031 13.135-3.068 19.7l-2.69.014c-10.332-25.985-13.568-53.531-16.123-81.607-14.15 4.145-26.964 9.85-35.835 21.285-4.132 5.327-6.796 12.128-8.813 18.665-1.99 6.452-2.073 13.467-3.441 20.143-2.3 11.217-4.864 22.383-7.566 33.51-.365 1.506-2.166 2.663-3.303 3.981-1.164-1.267-2.97-2.351-3.392-3.83-3.097-10.84-7.09-21.606-8.529-32.691-1.837-14.146-1.248-28.591-2.273-42.865-.643-8.936-2.048-17.849-7.21-25.652-2.728-4.123-5.235-8.401-7.652-12.716-1.538-2.745-2.545-5.789-4.11-8.517-3.31-5.765-6.437-5.783-9.658-.055-1.374 2.445-2.498 5.081-3.367 7.751a733.388 733.388 0 0 0-6.909 22.374c-4.288 14.771-8.453 29.576-12.876 45.094-1.114-1.621-1.912-2.587-2.5-3.667-6.191-11.38-8.246-23.621-8.706-36.492-.359-10.047-2.094-20.082-3.826-30.016-.43-2.462-3.219-4.512-4.924-6.752-1.396 2.298-3.51 4.437-4.063 6.922-1.984 8.923-3.255 18.002-5.155 26.946-1.653 7.78-3.408 15.582-5.857 23.135-1.547 4.769-4.196 5.124-7.046 1.076-2.602-3.696-5.435-8.028-5.854-12.306-1.068-10.898-.67-21.931-1.197-32.893-.399-8.285-.861-16.621-2.201-24.786-.699-4.261-2.906-8.484-5.256-12.205-2.239-3.545-5.579-3.049-7.167.865-1.231 3.034-1.844 6.376-2.344 9.641-2.123 13.865-5.388 27.396-11.444 40.12-.983 2.065-2.552 3.853-3.851 5.77l-1.43-.563c-2.281-14.447.283-28.953.609-43.548-5.854-.618-9.729 2.191-11.787 6.506-2.902 6.087-5.626 12.478-7 19.037-5.315 25.387-9.917 50.923-15.097 76.34-2.141 10.503-6.292 20.322-12.823 28.948-1.898 2.503-4.17 5.405-7.2.972v-14c.996-5.275 2.267-10.516 2.942-15.831 3.742-29.477 4.143-59.085 4.223-88.774C8.516 282.757 9.346 153.121 10 23.484c.009-1.742.001-3.484.001-5.724 4.805 0 8.826.332 12.777-.055 24.858-2.435 49.653-5.735 74.559-7.419 47.861-3.236 95.784-5.581 143.68-8.338 1.008-.056 1.989-.62 2.983-.948h119c.659.322 1.304.894 1.979.932 24.942 1.393 49.905 2.477 74.826 4.175 17.056 1.162 34.054 3.171 51.396 4.831 0 3.898-.21 7.209.031 10.486 4.169 56.636 8.958 113.232 12.445 169.91 3.458 56.188 5.611 112.456 8.379 168.688.048 1.005.618 1.986.944 2.978z"/><path fill="none" d="M1 531c3.03 4.433 5.302 1.531 7.197-.973 6.531-8.626 10.682-18.445 12.823-28.948 5.181-25.417 9.782-50.953 15.097-76.34 1.374-6.56 4.098-12.95 7-19.037 2.057-4.314 5.933-7.124 11.787-6.506-.327 14.595-2.89 29.101-.609 43.548l1.43.563c1.298-1.917 2.867-3.704 3.851-5.77 6.056-12.724 9.321-26.255 11.444-40.12.5-3.265 1.112-6.606 2.344-9.641 1.588-3.914 4.928-4.41 7.167-.865 2.35 3.721 4.557 7.944 5.256 12.205 1.34 8.165 1.802 16.501 2.201 24.786.527 10.962.129 21.994 1.197 32.893.42 4.277 3.253 8.609 5.854 12.306 2.85 4.048 5.499 3.692 7.046-1.076 2.449-7.553 4.204-15.354 5.857-23.135 1.9-8.944 3.171-18.023 5.155-26.946.553-2.485 2.666-4.624 4.063-6.922 1.705 2.24 4.494 4.29 4.924 6.752 1.732 9.934 3.467 19.969 3.826 30.016.46 12.871 2.515 25.112 8.706 36.492.588 1.08 1.386 2.046 2.5 3.667 4.423-15.518 8.588-30.323 12.876-45.094a733.388 733.388 0 0 1 6.909-22.374c.869-2.67 1.993-5.306 3.367-7.751 3.222-5.729 6.349-5.71 9.658.055 1.565 2.728 2.572 5.771 4.11 8.517 2.417 4.314 4.925 8.593 7.652 12.716 5.162 7.804 6.567 16.717 7.21 25.652 1.025 14.274.437 28.719 2.273 42.865 1.439 11.085 5.433 21.852 8.529 32.691.422 1.479 2.228 2.563 3.392 3.83 1.137-1.318 2.938-2.476 3.303-3.981 2.702-11.127 5.267-22.293 7.566-33.51 1.368-6.676 1.451-13.69 3.441-20.143 2.017-6.537 4.681-13.338 8.813-18.665 8.871-11.436 21.685-17.141 35.835-21.285 2.555 28.076 5.791 55.622 16.123 81.607l2.69-.014c1.037-6.565 2.278-13.105 3.068-19.7 1.763-14.703 3.285-29.435 4.951-44.149.148-1.309.369-2.728 1.009-3.834 1.253-2.169 2.824-4.153 4.265-6.214 1.63 1.969 4.202 3.716 4.726 5.944 2.353 10.012 4.304 20.128 6.055 30.266 2.18 12.622 3.058 25.552 6.262 37.891C314.89 537.487 319.335 551.696 328 564H1v-33zm328 33c1.253-7.859 3.255-15.686 3.614-23.586.952-20.946 1.179-41.926 1.728-62.892.16-6.149.074-12.334.738-18.433.973-8.928 4.945-16.455 11.93-22.318 4.542-3.813 8.935-7.806 14.451-12.646.599 3.719 1.556 6.421 1.367 9.042-.942 13.11-2.371 26.188-3.229 39.302-.332 5.073.01 10.276.833 15.291.293 1.789 2.8 4.285 4.507 4.465 1.659.176 4.31-1.814 5.236-3.545 1.523-2.842 2.155-6.207 2.885-9.414.771-3.39.784-7 1.897-10.251 1.999-5.835 6.942-7.145 11.826-3.301 5.688 4.478 8.109 10.846 9.236 17.715 3.044 18.548 5.928 37.122 8.949 55.674.333 2.047 1.144 4.016 2.872 5.91 1.728-10.012 3.673-19.991 5.115-30.043 1.275-8.892 1.5-17.954 3.148-26.762.911-4.866 2.608-10.661 6.017-13.777 9.122-8.34 12.595-18.941 14.94-30.261 2.515-12.135 4.672-24.344 7.074-36.989 8.331 8.465 14.146 18.354 16.698 29.866 1.279 5.773 1.094 11.869 1.614 17.814.476 5.441.738 10.924 1.647 16.295.392 2.317 1.764 4.826 3.454 6.456 1.462 1.409 4.29 2.687 5.985 2.196 1.62-.469 3.429-3.197 3.643-5.102.91-8.101 1.08-16.282 1.873-24.399.563-5.751 1.691-11.446 3.38-17.265 10.427 22.863 17.867 46.567 25.109 70.87 1.16-8.656 2.354-17.308 3.467-25.97.726-5.641 1.333-11.295 1.993-16.943v103L329 564z"/><path fill="none" d="M244 1c-.994.328-1.975.892-2.983.949-47.896 2.757-95.818 5.102-143.68 8.338-24.906 1.684-49.701 4.984-74.559 7.419-3.951.387-7.973.055-12.777.055 0 2.239.008 3.981-.001 5.724-.654 129.637-1.484 259.272-1.834 388.91-.08 29.689-.481 59.298-4.223 88.774C3.267 506.484 1.996 511.725 1 517V1h243zm269 362c-.326-.992-.896-1.973-.944-2.979-2.768-56.231-4.921-112.5-8.379-168.688-3.487-56.678-8.276-113.274-12.445-169.91-.241-3.277-.031-6.588-.031-10.486-17.342-1.66-34.34-3.669-51.396-4.831-24.921-1.698-49.884-2.782-74.826-4.175-.675-.037-1.32-.609-1.979-.931h150v362z"/></g></svg>