<svg xmlns="http://www.w3.org/2000/svg" width="372" height="65" viewBox="0 0 372 65"><path fill="#FEB70A" d="M360.741 14.013c5.259 2.32 11.183 7.029 11.274 14.194.011.722-4.552 33.147-5.699 36.793-2.333 0-185.967-5.17-197.458-4.952-11.358.216-142.621 3.91-149.284 3.986-1.42.017-1.601-.563-1.594-1.751.039-7.33-.429-27.074-1.017-33.241 0 0-.775-11.417-2.463-14.729-.431-1.011-2.188-2.688-3.987-2.875V9.982c10.737-4.169 39.743-6.983 41.75-6.924 118.904-5.391 176.904-1.6 308.478 10.955z"/><path fill="none" d="M17 38c1.674.18.96 1.49.967 2.292.057 7.33.052 14.66.014 21.99-.006 1.188.174 1.768 1.594 1.751 6.663-.075 13.438.728 19.964-.223 8.571-1.246 17.157.186 25.583-.957 9.721-1.318 19.466.08 29.073-1.035 6.732-.78 13.399-.674 20.099-.793 6.829-.119 13.75.672 20.472-.183 11.38-1.444 22.734-.581 34.093-.796 11.49-.216 22.989-.046 34.484-.046s23.044-.701 34.472.182c13.713 1.059 27.394.51 41.084.818 8.287 2.086 16.787.031 25.056 1.146 7.059.951 14.161.01 21.067 1.049 5.75.867 11.48.058 17.089.929 5.382.836 10.721.817 16.098.918.27.005.529.625.793.958H5.502c-1 0-2.016-.111-2.996.027C1.19 66.215.956 65.8.962 64.5 1.024 50.667 1 36.833 1 23c.333.25.75.439.984.761C2.733 24.789 2.432 26.472 4 27c-.221 3.037 1.192 5.741 3.195 7.461C9.844 36.736 13.147 38.454 17 38zm356-8c-1.378-.014-.977-1.07-.986-1.792-.092-7.165-4.369-11.189-10.351-14.031-.275-.13-.63-.209-.924-.163-3.946.602-7.72-1.085-11.581-.956-6.241.208-12.33-1.808-18.581-1.058-3.907-1.777-8.134-.307-12.06-1.107-4.709-.961-9.527-.164-14.061-1.095-4.102-.842-8.098-.442-12.121-.813-2.701-.25-5.382-.787-8.086-.947-2.822-.167-5.837.575-8.456-.171-4.724-1.346-9.513-.097-14.097-.981-6.045-1.166-12.2.014-18.063-1.092-5.439-1.025-10.759-.471-16.119-.757-3.55-.188-6.926-1.478-10.588-1.115-3.63.36-7.459.708-10.96-.051-7.375-1.6-14.809.001-22.092-.97-11.195-1.493-22.396-.544-33.584-.94-.438-.018-.859-.628-1.29-.961h220c.833 0 1.684.105 2.496-.024 1.313-.209 1.555.224 1.544 1.524-.075 9.166-.04 18.333-.04 27.5zM82 1c-.117.283-.186.772-.359.813-.62.145-1.284.224-1.919.174-9.193-.735-18.276 1.342-27.459 1.07-2.007-.06-4.026.688-6.057.92-2.04.233-4.013.119-6.112.854-2.293.804-5.032.747-7.508.959-4.937.422-9.566 2.328-14.582 2.347-2.319.009-4.657 1.435-6.931 2.355-.482.196-.721.99-1.073 1.508-.617.117-1.278.131-1.845.369C4.977 13.71 3.135 16.519 1 19c0-5.667.024-11.334-.026-17C.966 1.138 1.131.903 2.002.976 3.161 1.073 4.333 1 5.5 1H82zm284 65c1.146-3.646 2.319-7.285 3.43-10.943.58-1.91 1.168-3.83 1.542-5.785.501-2.621.784-5.283 1.216-7.92.025-.156.53-.235.813-.352 0 7.833-.041 15.667.04 23.5.014 1.302-.229 1.645-1.543 1.537-1.822-.148-3.665-.037-5.498-.037z"/><path fill="#FEB70A" d="M1 19c.938-4.813 5.25-7.75 9.513-9.018 0 0 1.061.395 0 1.456C8.719 11.547 4 27 4 27c-1.568-.528-3.424-5.822-3-8z"/><path fill="#C39014" d="M4 26.958c0-1.521.935-15.481 6.78-15.481S16.858 24.531 16.858 27c-4.712 0-8.691-.042-12.858-.042z"/></svg>