<svg xmlns="http://www.w3.org/2000/svg" width="879" height="710" viewBox="0 0 879 710" preserveAspectRatio="none"><g clip-rule="evenodd"><path fill-rule="evenodd" fill="#16190B" d="M621 1h113c.661.32 1.299.858 1.986.932 35.243 3.73 70.505 7.282 105.726 11.209 9.769 1.089 19.414 3.275 28.718 4.889l-.455 5.619c-1.764 21.742-2.654 43.599-5.489 65.2-4.691 35.751-2.084 71.124 3.02 106.489 3.426 23.737 7.414 47.397 4.538 71.544-1.278 10.74-2.668 21.516-3.028 32.308-1.604 48.104-2.935 96.209-1.9 144.359.464 21.704 7.197 41.925 12.884 62.451v20c-.364.471-.88.888-1.071 1.42-3.925 10.929-8.167 21.762-11.575 32.851-2.071 6.739-3.635 13.838-3.993 20.848-.431 8.442 1.166 16.978.929 25.445-.188 6.71-.854 13.718-3.052 19.981-2.828 8.062-11.741 9.396-17.036 2.672-2.76-3.505-4.489-8.596-4.824-13.109-2.168-29.235-3.784-58.511-5.68-87.768-.426-6.566-1.245-13.107-1.884-19.66l-1.815.061c0 7.468.422 14.963-.085 22.396-1.164 17.104-1.479 34.413-4.528 51.205-4.188 23.065-6.53 46.128-6.492 69.503.008 4.602.001 9.202.001 13.804-1.668-13.936-2.79-27.868-3.808-41.809-2.814-38.546-5.548-77.099-8.451-115.639-.204-2.715-1.339-5.423-2.372-8.002-5.12-12.78-10.348-25.519-15.556-38.264-.435-1.063-1.002-2.072-2.074-4.262-.387 2.002-.628 2.604-.598 3.19 1.09 21.063 3.857 42.197 2.919 63.167-1.308 29.234-5.353 58.349-8.3 87.506-.666 6.591-1.636 13.15-2.466 19.725-1.384-1.194-1.791-2.295-1.928-3.429-3.345-27.666-5.577-55.455-3.696-83.276 1.744-25.793.805-51.261-4.637-76.514-2.709-12.57-5.838-25.05-8.777-37.57l-1.641.099c-4.503 32.803-9.127 65.589-13.43 98.418-1.167 8.902-1.269 17.94-2.05 26.899-.413 4.739-1.401 9.633-6.76 11.134-5.337 1.494-9.385-1.821-11.529-5.978-2.919-5.657-5.7-11.8-6.575-18.011-1.762-12.5-1.784-25.237-3.325-37.778-.99-8.057-3.408-15.938-5.186-23.898-2.104 7.785-.149 15.694-4.649 23.971-7.974-11.577-10.495-24.128-14.834-37.181-1.005 2.694-2.022 4.428-2.278 6.267-1.714 12.339-3.071 24.729-4.921 37.046-2.072 13.802-4.473 27.556-6.918 41.297-.355 2.001-1.754 3.817-2.669 5.719-.579-.092-1.157-.185-1.736-.276-.864-3.477-2.004-6.911-2.547-10.437-2.79-18.092-5.173-36.25-8.212-54.298-1.785-10.6-2.886-21.59-9.15-30.823-2.018-2.973-5.228-5.136-7.893-7.67-1.652 3.401-4.297 6.67-4.775 10.229-1.618 12.034-1.992 24.24-3.711 36.257-3.486 24.376-7.928 48.619-11.26 73.015-3.783 27.703-6.662 55.527-10.187 83.268-1.301 10.239-3.32 20.387-5.013 30.576-4.49-38.558-8.034-77.029-12.067-115.45-1.613-15.361-3.039-30.925-6.757-45.847-9.577-38.439-26.781-73.935-44.73-109.039-.186-.365-.666-.579-2.196-1.849-6.161 32.866-12.44 64.841-18.057 96.933-3.026 17.292-6.499 34.331-15.183 49.802-2.097 3.733-4.672 7.341-7.641 10.413-6.753 6.989-13.03 5.777-17.065-3.14-1.427-3.152-2.521-6.55-3.153-9.949-1.854-9.975-3.141-20.059-5.126-30.004-3.589-17.97-8.292-35.633-16.993-51.929-1.614-3.023-4.063-5.601-6.738-9.211-1.082 2.53-1.746 3.521-1.93 4.595-3.149 18.364-6.339 36.723-9.308 55.117-1.867 11.571-1.25 23.698-8.41 34.001-1.068 1.536-1.396 3.764-1.567 5.715-.655 7.457-1.693 14.944-1.534 22.397.682 31.868-8.053 61.828-17.921 91.59-.624 1.881-1.376 3.8-2.486 5.413-1.058 1.536-2.663 2.695-4.028 4.021-1.088-1.55-2.867-2.984-3.148-4.669-1.476-8.844-3.379-17.726-3.664-26.642-1.405-44.076-6.955-87.622-16.362-130.651-3.65-16.697-8.581-33.119-13.104-49.619-.67-2.446-2.305-4.629-3.493-6.934l-1.533.535c-.169 2.787-.617 5.59-.46 8.358.65 11.477 1.575 22.937 2.228 34.413a3898.38 3898.38 0 0 1 2.508 49.398c.101 2.281-.692 4.603-1.071 6.904l-1.547.227c-1.497-2.464-3.193-4.831-4.461-7.409-12.091-24.601-24.305-49.148-32.751-75.342-1.723-5.345-4.99-6.275-9.424-2.892a25.135 25.135 0 0 0-4.586 4.556c-7.809 10.103-12.159 21.674-14.153 34.191-3.718 23.324-6.871 46.755-11.292 69.944-2.761 14.481-7.334 28.625-11.297 42.863-.643 2.307-2.348 4.318-3.562 6.466-.568-.1-1.136-.199-1.703-.3-1.05-3.242-2.517-6.413-3.085-9.738-5.101-29.845-10.013-59.722-15.042-89.578-3.091-18.354-5.284-36.985-12.908-54.191-3.06-6.905-7.315-13.354-11.648-19.577-1.335-1.918-5.066-3.698-7.081-3.172-1.929.504-3.673 3.903-4.398 6.354-1.409 4.763-1.865 9.798-3.039 14.642-3.859 15.914-7.863 31.794-11.812 47.688l-1.001-.104-21.709-82.723c-17.426 10.18-30.262 22.27-30.102 44.019.222 30.166-1.178 60.289-5.311 90.228-3.071 22.242-8.037 43.739-21.088 62.724-14.317 20.825-30.868 39.67-48.775 57.4-.279.276-.793.315-.732.293 0-16.959-.075-33.928.016-50.896.172-31.989.817-63.983.371-95.963-.097-6.956-2.997-14.364-6.314-20.665-4.548-8.638-12.663-13.097-22.87-13.957 0 2.287-.009 4.104.001 5.922.137 23.322.34 46.646.338 69.968 0 3.085-1.038 6.17-1.595 9.255l-1.917.175c-1.49-3.563-3.315-7.025-4.417-10.705-9.433-31.516-18.527-63.135-28.186-94.58-3.443-11.209-4.947-22.233-3.114-33.895 1.431-9.101 1.845-18.361 2.711-27.552l-.952-.171-3.469 10.53c-1.461-2.511-2.055-4.794-2.048-7.075.098-31.813-.5-63.654.676-95.431 1.003-27.1 3.176-54.232 6.449-81.154 3.995-32.856 5.424-65.65 4.266-98.717-1.699-48.494-.506-96.968 3.809-145.33.69-7.734 1.571-15.452 2.381-23.335 24.587-2.626 48.522-1.023 71.72 5.675 29.85 8.618 59.964 13.842 91.085 12.206 38.599-2.028 77.209-3.874 115.784-6.288 30.922-1.935 61.788-4.729 92.696-6.903 33.733-2.373 67.458-5.25 101.237-6.49 40.954-1.503 81.963-1.511 122.946-2.221 1.668-.031 3.326-.629 4.99-.961z"/><path fill="none" d="M621 1c-1.664.332-3.322.93-4.991.959-40.983.71-81.992.718-122.946 2.221-33.779 1.24-67.504 4.117-101.237 6.49-30.908 2.174-61.774 4.969-92.696 6.903-38.575 2.414-77.186 4.26-115.784 6.288-31.121 1.636-61.235-3.588-91.085-12.206C69.062 4.957 45.126 3.354 20.54 5.98c-.81 7.883-1.691 15.601-2.381 23.335-4.314 48.362-5.507 96.836-3.809 145.33 1.158 33.066-.271 65.86-4.266 98.717-3.273 26.922-5.446 54.055-6.449 81.154-1.176 31.776-.578 63.617-.676 95.431-.007 2.281.587 4.564 2.048 7.075l3.469-10.53.952.171c-.866 9.19-1.28 18.451-2.711 27.552-1.833 11.661-.329 22.686 3.114 33.895 9.659 31.445 18.753 63.064 28.186 94.58 1.102 3.68 2.927 7.143 4.417 10.705l1.917-.175c.557-3.085 1.594-6.17 1.595-9.255.001-23.322-.202-46.646-.338-69.968-.011-1.817-.001-3.635-.001-5.922 10.207.86 18.322 5.319 22.87 13.957 3.317 6.301 6.218 13.709 6.314 20.665.446 31.979-.199 63.974-.371 95.963-.091 16.968-.016 33.937-.016 50.896-.061.022.453-.017.732-.293 17.907-17.73 34.458-36.575 48.775-57.4 13.051-18.984 18.017-40.481 21.088-62.724 4.133-29.938 5.532-60.062 5.311-90.228-.16-21.749 12.676-33.839 30.102-44.019l21.709 82.723 1.001.104c3.948-15.894 7.952-31.773 11.812-47.688 1.174-4.844 1.63-9.879 3.039-14.642.726-2.451 2.47-5.851 4.398-6.354 2.015-.526 5.746 1.254 7.081 3.172 4.333 6.223 8.589 12.672 11.648 19.577 7.624 17.206 9.817 35.837 12.908 54.191 5.029 29.856 9.941 59.733 15.042 89.578.568 3.325 2.035 6.496 3.085 9.738.567.101 1.135.2 1.703.3 1.214-2.147 2.919-4.159 3.562-6.466 3.963-14.238 8.536-28.382 11.297-42.863 4.421-23.189 7.574-46.62 11.292-69.944 1.994-12.518 6.345-24.089 14.153-34.191a25.167 25.167 0 0 1 4.586-4.556c4.434-3.384 7.701-2.453 9.424 2.892 8.446 26.193 20.66 50.741 32.751 75.342 1.268 2.578 2.964 4.945 4.461 7.409.516-.075 1.031-.15 1.547-.227.379-2.302 1.172-4.623 1.071-6.904a3896.491 3896.491 0 0 0-2.508-49.398c-.652-11.477-1.577-22.937-2.228-34.413-.157-2.769.291-5.571.46-8.358l1.533-.535c1.188 2.305 2.823 4.487 3.493 6.934 4.522 16.5 9.453 32.922 13.104 49.619 9.407 43.029 14.957 86.575 16.362 130.651.285 8.916 2.188 17.798 3.664 26.642.281 1.685 2.061 3.119 3.148 4.669 1.365-1.325 2.971-2.484 4.028-4.021 1.11-1.613 1.862-3.532 2.486-5.413 9.868-29.762 18.603-59.722 17.921-91.59-.159-7.453.879-14.94 1.534-22.397.172-1.951.499-4.179 1.567-5.715 7.16-10.303 6.543-22.43 8.41-34.001 2.969-18.395 6.158-36.753 9.308-55.117.184-1.073.848-2.064 1.93-4.595 2.676 3.61 5.124 6.188 6.738 9.211 8.701 16.296 13.404 33.959 16.993 51.929 1.985 9.945 3.271 20.029 5.126 30.004.633 3.399 1.727 6.797 3.153 9.949 4.035 8.917 10.313 10.129 17.065 3.14 2.969-3.072 5.544-6.68 7.641-10.413 8.684-15.471 12.156-32.51 15.183-49.802 5.616-32.092 11.896-64.066 18.057-96.933 1.53 1.27 2.011 1.483 2.196 1.849 17.949 35.104 35.153 70.6 44.73 109.039 3.718 14.922 5.144 30.485 6.757 45.847 4.033 38.421 7.577 76.893 12.067 115.45 1.692-10.189 3.712-20.337 5.013-30.576 3.524-27.74 6.403-55.564 10.187-83.268 3.332-24.396 7.773-48.639 11.26-73.015 1.719-12.017 2.093-24.223 3.711-36.257.479-3.559 3.123-6.827 4.775-10.229 2.665 2.534 5.875 4.697 7.893 7.67 6.265 9.233 7.365 20.224 9.15 30.823 3.039 18.048 5.422 36.206 8.212 54.298.543 3.525 1.683 6.96 2.547 10.437.579.092 1.157.185 1.736.276.915-1.901 2.313-3.718 2.669-5.719 2.445-13.741 4.846-27.495 6.918-41.297 1.85-12.316 3.207-24.707 4.921-37.046.256-1.839 1.273-3.572 2.278-6.267 4.339 13.053 6.86 25.604 14.834 37.181 4.5-8.276 2.545-16.186 4.649-23.971 1.777 7.96 4.195 15.842 5.186 23.898 1.541 12.541 1.563 25.278 3.325 37.778.875 6.211 3.656 12.354 6.575 18.011 2.145 4.156 6.192 7.472 11.529 5.978 5.358-1.501 6.347-6.395 6.76-11.134.781-8.959.883-17.997 2.05-26.899 4.303-32.829 8.927-65.615 13.43-98.418l1.641-.099c2.939 12.521 6.068 25 8.777 37.57 5.441 25.253 6.381 50.721 4.637 76.514-1.881 27.821.352 55.61 3.696 83.276.137 1.134.544 2.234 1.928 3.429.83-6.574 1.8-13.134 2.466-19.725 2.947-29.157 6.992-58.271 8.3-87.506.938-20.97-1.829-42.104-2.919-63.167-.03-.587.211-1.188.598-3.19 1.072 2.189 1.64 3.198 2.074 4.262 5.208 12.745 10.436 25.483 15.556 38.264 1.033 2.579 2.168 5.287 2.372 8.002 2.903 38.54 5.637 77.093 8.451 115.639 1.018 13.94 2.14 27.873 3.808 41.809 0-4.602.007-9.202-.001-13.804-.038-23.375 2.304-46.438 6.492-69.503 3.049-16.792 3.364-34.101 4.528-51.205.507-7.433.085-14.928.085-22.396l1.815-.061c.639 6.553 1.458 13.094 1.884 19.66 1.896 29.257 3.512 58.532 5.68 87.768.335 4.514 2.064 9.604 4.824 13.109 5.295 6.724 14.208 5.39 17.036-2.672 2.198-6.264 2.863-13.271 3.052-19.981.237-8.468-1.359-17.003-.929-25.445.358-7.01 1.922-14.108 3.993-20.848 3.408-11.089 7.65-21.922 11.575-32.851.191-.532.707-.949 1.071-1.42v184.98H1.109V.998C207.667 1 414.333 1 621 1zm259 505c-5.687-20.526-12.42-40.747-12.886-62.451-1.034-48.15.296-96.256 1.9-144.359.36-10.792 1.75-21.567 3.028-32.308 2.876-24.146-1.112-47.807-4.538-71.544-5.104-35.365-7.711-70.738-3.02-106.489 2.835-21.602 3.726-43.458 5.489-65.2l.455-5.619c-9.304-1.613-18.949-3.8-28.718-4.889-35.221-3.927-70.482-7.479-105.726-11.209-.685-.074-1.323-.612-1.984-.932h146v505z"/></g></svg>