<svg xmlns="http://www.w3.org/2000/svg" width="1038" height="335" viewBox="0 0 1038 335" preserveAspectRatio="none"><g clip-rule="evenodd"><path fill-rule="evenodd" fill="#15180A" d="M168 336H14c-.057-7.975.7-16.058-.34-23.902-2.138-16.115-5.112-32.125-8.002-48.132C4.445 257.249 2.573 250.651 1 244v-12c1.254-4.17 1.985-8.593 3.854-12.466 7.215-14.951 6.183-29.512-1.164-43.997-.445-.878-.57-1.932-1.083-2.755-.266-.428-1.054-.532-1.607-.782v-11l4.452-3.858L1 148v-7l5.04-2.209L1 131V25c3.801-.93 7.602-1.858 12.369-3.023L1 18V1h30c.26 2.414.737 4.827.746 7.242.065 17.212.035 34.425.035 51.637l1.291.131L43 1h104c.655.325 1.298.904 1.968.938 7.652.39 15.309.692 22.963 1.025 43.599 1.898 87.197 3.807 130.798 5.684 2.854.123 5.719.016 9.151.016l-6.767-4.831c9.672.614 17.971 1.405 26.284 1.608 13.112.321 26.233.307 39.352.318 6.611.006 13.351-1.119 19.807-.18C401.977 7.24 412.374 3.791 423 1h305c.162.266.29.734.49.768a79181.92 79181.92 0 0 0 114.718 18.743c.945.153 2.017.186 2.911-.099 7.879-2.494 15.73-5.074 24.429-7.901l-10.29-2.903c.827-.592 1.602-.781 2.33-.671 7.107 1.076 14.15 1.993 20.953-1.635.762-.406 2.751.57 3.617 1.451 2.603 2.647 4.932 5.565 7.735 8.803l4.373-11.92c6.408.989 12.579 1.493 18.51 2.964 8.364 2.075 16.491 4.183 24.81-.202 1.079-.568 3.376.135 4.57.995 7.069 5.094 14.27 4.772 21.936 1.477 4.099-1.762 8.547-2.693 12.791-4.138C987.28 4.895 992.63 2.917 998 1h41v335h-9v-46.438l-.771-.055L1023 336H813c-7.813-3.603-15.474-6.847-24.606-6.48-10.231.411-20.528-.932-30.804-1.367-1.731-.074-3.777.123-5.185.993-3.642 2.252-7.362 2.561-11.426 1.817-3.759-.688-7.552-1.387-11.355-1.583-7.925-.408-16.394-4.993-23.401 3.621-4.037-7.107-9.426-5.546-14.938-3.617-2.032.712-4.131 1.521-6.239 1.65-2.286.142-4.849.063-6.884-.838-4.319-1.913-8.374-4.421-12.635-6.737l-6.08 9.019-17.028 1.164-2.711-6.072c-2.958 2.071-5.517 3.862-8.037 5.628l-10.455-7.354L612 336H394c-1.684-.586-3.373-1.698-5.049-1.678-16.263.199-31.597-3.398-46.202-10.512-1.898-.924-4.473-1.187-6.58-.835-10.001 1.667-19.961 3.592-29.909 5.557-3.48.688-6.783 1.512-9.771-1.424-.635-.623-2.207-.819-3.135-.53-7.407 2.303-14.832 2.387-22.621 2.604-29.776.832-59.509 3.279-89.252 5.213-4.509.293-8.988 1.058-13.481 1.605z"/><path fill="none" d="M998 1c-5.37 1.917-10.72 3.895-16.117 5.731-4.244 1.444-8.692 2.376-12.791 4.138-7.666 3.296-14.866 3.617-21.936-1.477-1.194-.86-3.491-1.563-4.57-.995-8.318 4.385-16.445 2.277-24.81.202-5.931-1.471-12.102-1.975-18.51-2.964l-4.373 11.92c-2.804-3.237-5.133-6.155-7.735-8.803-.866-.881-2.855-1.857-3.617-1.451-6.803 3.628-13.846 2.711-20.953 1.635-.729-.11-1.503.079-2.33.671 3.128.883 6.256 1.766 10.29 2.903-8.698 2.827-16.55 5.407-24.429 7.901-.895.284-1.966.252-2.911.099A78048.736 78048.736 0 0 1 728.49 1.768c-.2-.034-.328-.502-.49-.768h270zM168 336c4.493-.547 8.972-1.312 13.481-1.604 29.743-1.934 59.476-4.381 89.252-5.213 7.789-.218 15.214-.302 22.621-2.604.928-.289 2.5-.093 3.135.53 2.987 2.936 6.29 2.111 9.771 1.424 9.948-1.965 19.908-3.89 29.909-5.557 2.107-.352 4.682-.089 6.58.835 14.605 7.113 29.939 10.711 46.202 10.512 1.676-.021 3.365 1.092 5.049 1.678L168 336zM423 1c-10.626 2.791-21.023 6.24-32.444 4.579-6.456-.939-13.195.186-19.807.18-13.118-.012-26.239.003-39.352-.318-8.313-.203-16.612-.994-26.284-1.608l6.767 4.831c-3.433 0-6.297.107-9.151-.016-43.601-1.877-87.199-3.785-130.798-5.684-7.654-.333-15.311-.636-22.963-1.025-.67-.035-1.313-.614-1.968-.939h276zm189 335l9.216-10.156c3.651 2.568 6.907 4.857 10.455 7.354l8.037-5.628 2.711 6.072 17.028-1.164 6.08-9.019c4.261 2.316 8.315 4.824 12.635 6.737 2.035.9 4.598.979 6.884.838 2.108-.13 4.207-.938 6.239-1.65 5.512-1.929 10.9-3.49 14.938 3.617 7.008-8.614 15.477-4.029 23.401-3.621 3.804.196 7.597.896 11.355 1.583 4.063.743 7.784.435 11.426-1.817 1.407-.87 3.453-1.067 5.185-.993 10.275.436 20.572 1.778 30.804 1.367 9.133-.366 16.793 2.878 24.606 6.48H612zM1 244c1.573 6.651 3.445 13.249 4.658 19.966 2.89 16.007 5.864 32.017 8.002 48.132 1.04 7.844.283 15.927.34 23.902H1v-92zM43 1l-9.928 59.01-1.291-.131c0-17.212.03-34.425-.035-51.637C31.737 5.827 31.26 3.414 31 1h12zM1 172c.553.25 1.341.354 1.607.782.513.823.638 1.877 1.083 2.755 7.346 14.485 8.378 29.046 1.164 43.997C2.985 223.407 2.254 227.83 1 232v-60zm1022 164l6.229-46.493.771.055V336h-7zM1 18l12.369 3.977C8.602 23.142 4.801 24.07 1 25v-7zm0 130l4.452 9.142L1 161v-13zm0-17l5.04 7.791L1 141v-10z"/></g></svg>