<svg xmlns="http://www.w3.org/2000/svg" width="337" height="1330" viewBox="0 0 337 1330" preserveAspectRatio="none"><g clip-rule="evenodd"><path fill-rule="evenodd" fill="#16190B" d="M338 815v12c-.451 1.171-1.212 2.317-1.308 3.517-1.102 13.778-1.669 27.613-3.216 41.339-3.932 34.884-9.083 69.647-12.243 104.595-2.916 32.243-3.1 64.588 6.983 96.056 7.752 24.191 8.29 48.744 3.233 73.537-3.224 15.808-6.959 31.549-9.262 47.494-1.75 12.115-1.358 24.527-2.465 36.758-.295 3.257-2.596 6.332-3.976 9.491-2.948-1.812-7.4-2.956-8.557-5.563-3.102-6.995-5.896-14.48-6.822-22.016-2.036-16.587-2.862-33.323-4.117-50.003-.086-1.151.375-2.343.581-3.516-1.492 55.649 3.854 111.492-6.205 166.726a8.74 8.74 0 0 1-.618-3.207c-.223-22.162-.415-44.324-.637-66.485-.242-24.262 2.129-48.73-5.447-72.429-3.382-10.579-6.968-21.095-10.461-31.64l-1.886.54c.232 1.585.389 3.185.709 4.751 2.066 10.103 5.098 20.111 6.052 30.314 1.621 17.354 2.005 34.826 2.699 52.258.059 1.488-1.452 3.039-2.234 4.562-1.391-1.034-3.493-1.778-4.053-3.151-2.746-6.744-6.199-13.474-7.353-20.542-3.35-20.527-5.75-41.211-8.457-61.842-.86-6.563-1.516-13.151-2.295-19.996-3.373 9.478-6.471 18.332-9.677 27.147-3.29 9.05-6.854 18.005-9.963 27.115-1.495 4.38-1.749 9.205-3.412 13.501-1.938 5.011-5.457 9.326-11.557 8.391-6.185-.948-7.773-6.142-8.274-11.572-.197-2.138-.243-4.372.147-6.468 4.249-22.781-1.529-44.279-8.3-65.648-.534-1.686-1.579-3.208-2.387-4.807 5.229 46.324-.655 92.154-1.486 138.063-4.473-43.441-9.213-86.775-22.812-128.656-1.132 1.674-1.909 3.343-1.93 5.021-.26 21.449-2.119 43.051-.226 64.316 3.658 41.087-4.458 80.365-14.452 119.617-7.356-28.653-4.164-58.148-6.504-88.971-.783 2.664-1.032 3.71-1.396 4.715-2.194 6.06-4.269 12.171-6.752 18.111-.486 1.164-2.608 2.271-3.944 2.234-.912-.025-2.245-1.967-2.559-3.255-.904-3.709-1.416-7.517-2.03-11.294-2.101-12.939-4.18-25.883-6.268-38.824l-1.005.092-2.543 47.246c-1.294-1.182-1.9-2.487-2.127-3.855-3.427-20.649-6.78-41.313-10.209-61.962-.955-5.753-2.102-11.474-3.16-17.21l-2.667-.066c-1.185 4.334-2.379 8.665-3.551 13.003-5.774 21.379-11.761 42.718-10.394 65.25.117 1.927-.298 4.113-1.177 5.811-.995 1.92-2.623 4.538-4.289 4.79-1.602.243-4.629-1.771-5.248-3.45-2.567-6.962-5.068-14.055-6.487-21.315-4.652-23.82-8.792-47.74-13.235-71.602-.35-1.88-1.516-3.608-2.303-5.407-1.503 1.725-1.646 2.886-1.481 4.003 1.921 12.997-1.955 24.732-8.558 35.538-1.648 2.697-6.091 5.618-8.774 5.222-2.825-.417-6.288-4.29-7.3-7.367-1.513-4.6-1.191-9.819-1.534-14.784-1.303-18.904-2.227-37.843-3.994-56.703-.721-7.694-3.23-15.221-4.927-22.823l-.979.326-6.398 185.585c-1.374-.603-1.588-1.211-1.621-1.829-3.712-69.378-7.708-138.743-10.899-208.145-.792-17.23-.343-34.764 1.934-51.838 4.332-32.48 11.144-64.63 15.456-97.112 2.615-19.697 4.335-39.883 3.042-59.626-1.285-19.622-4.373-38.604-2.522-58.839 2.608-28.499-.232-57.55-1.458-86.334-1.423-33.424-3.914-66.802-5.396-100.224-1.357-30.604-1.84-61.247-2.991-91.862-.726-19.302-2.234-38.576-2.812-57.88-.154-5.151.417-11.393 3.235-15.249 2.546-3.484 2.793-6.456 2.941-9.995.083-1.989-.047-4.003-.25-5.988-2.672-26.18-7.056-52.318-7.653-78.543-.78-34.259 1.207-68.594 2.446-102.881.643-17.781 2.043-35.442 7.563-52.714 2.4-7.509 2.65-16.298 1.604-24.205-3.223-24.389-7.787-48.597-11.321-72.949-1.539-10.606-3.147-21.486-2.397-32.077 1.182-16.689 4.472-33.223 6.522-49.864.419-3.401 1.007-5.178 4.706-6.162 36.967-9.84 74.56-15.877 112.657-18.832C193.346-.2 252.771 3.223 311.32 18.135c3.62.922 5.184 2.565 5.654 6.225 1.421 11.064 3.835 22.042 4.603 33.14 1.375 19.891 4.206 40.089 2.194 59.725-4.687 45.722-5.488 91.034 3.198 136.329 3.094 16.128 6.76 32.102 4.481 48.975-1.493 11.056-1.32 22.667.224 33.733 3.231 23.169 5.576 46.251 4.212 69.689-1.331 22.886-3.131 45.659-1.883 68.775 1.132 20.958-2.166 42.165-3.654 63.252-.992 14.053-3.085 28.091-3.028 42.129.03 7.746 4.639 15.399 5.171 23.231 1.547 22.735 2.985 45.548 2.785 68.315-.274 31.2-8.103 62.063-3.442 93.618 2.129 14.421 1.38 29.255 2.325 43.876.131 2.026 2.505 3.906 3.84 5.853z"/><path fill="none" d="M338 815c-1.335-1.947-3.709-3.827-3.84-5.853-.945-14.621-.196-29.455-2.325-43.876-4.66-31.555 3.168-62.418 3.442-93.618.2-22.768-1.238-45.58-2.785-68.315-.532-7.832-5.141-15.485-5.171-23.231-.057-14.038 2.036-28.076 3.028-42.129 1.488-21.087 4.786-42.294 3.654-63.252-1.248-23.116.552-45.89 1.883-68.775 1.364-23.438-.98-46.521-4.212-69.689-1.544-11.066-1.717-22.678-.224-33.733 2.278-16.873-1.388-32.847-4.481-48.975-8.687-45.295-7.885-90.607-3.198-136.329 2.012-19.636-.819-39.834-2.194-59.725-.768-11.098-3.182-22.075-4.603-33.14-.471-3.659-2.034-5.303-5.654-6.225C252.771 3.223 193.346-.2 133.313 4.456c-38.098 2.955-75.69 8.992-112.657 18.832-3.699.984-4.287 2.761-4.706 6.162-2.05 16.642-5.34 33.175-6.522 49.864-.75 10.591.858 21.471 2.397 32.077 3.534 24.353 8.098 48.561 11.321 72.949 1.045 7.907.795 16.696-1.604 24.205-5.52 17.271-6.92 34.933-7.563 52.714-1.239 34.287-3.226 68.622-2.446 102.881.597 26.225 4.981 52.363 7.653 78.543.203 1.985.333 3.999.25 5.988-.148 3.539-.396 6.511-2.941 9.995-2.817 3.856-3.389 10.098-3.235 15.249.578 19.304 2.086 38.578 2.812 57.88 1.151 30.615 1.634 61.258 2.991 91.862 1.482 33.422 3.973 66.8 5.396 100.224 1.226 28.784 4.066 57.835 1.458 86.334-1.851 20.235 1.237 39.217 2.522 58.839 1.293 19.743-.428 39.929-3.042 59.626-4.312 32.482-11.124 64.632-15.456 97.112-2.276 17.074-2.726 34.607-1.934 51.838 3.191 69.401 7.188 138.767 10.899 208.145.033.618.247 1.227 1.621 1.829l6.398-185.585.979-.326c1.696 7.603 4.206 15.129 4.927 22.823 1.767 18.86 2.691 37.799 3.994 56.703.342 4.965.021 10.185 1.534 14.784 1.012 3.077 4.475 6.95 7.3 7.367 2.683.396 7.126-2.524 8.774-5.222 6.603-10.806 10.479-22.541 8.558-35.538-.165-1.117-.022-2.278 1.481-4.003.787 1.799 1.953 3.527 2.303 5.407 4.442 23.861 8.583 47.781 13.235 71.602 1.419 7.261 3.92 14.354 6.487 21.315.619 1.68 3.646 3.693 5.248 3.45 1.666-.252 3.294-2.87 4.289-4.79.879-1.697 1.294-3.884 1.177-5.811-1.367-22.532 4.619-43.871 10.394-65.25 1.172-4.338 2.366-8.669 3.551-13.003l2.667.066c1.059 5.736 2.205 11.457 3.16 17.21 3.429 20.649 6.782 41.313 10.209 61.962.227 1.368.833 2.674 2.127 3.855l2.543-47.246 1.005-.092c2.088 12.941 4.167 25.885 6.268 38.824.614 3.777 1.126 7.585 2.03 11.294.313 1.288 1.646 3.229 2.559 3.255 1.336.037 3.458-1.07 3.944-2.234 2.483-5.94 4.558-12.052 6.752-18.111.364-1.005.613-2.051 1.396-4.715 2.34 30.822-.853 60.317 6.504 88.971 9.994-39.252 18.11-78.53 14.452-119.617-1.894-21.266-.034-42.867.226-64.316.021-1.679.798-3.348 1.93-5.021 13.599 41.881 18.339 85.215 22.812 128.656.831-45.908 6.715-91.738 1.486-138.063.808 1.599 1.853 3.121 2.387 4.807 6.771 21.369 12.549 42.867 8.3 65.648-.391 2.096-.345 4.33-.147 6.468.501 5.431 2.09 10.624 8.274 11.572 6.1.936 9.618-3.38 11.557-8.391 1.663-4.296 1.917-9.121 3.412-13.501 3.108-9.11 6.673-18.065 9.963-27.115 3.206-8.815 6.304-17.67 9.677-27.147.779 6.845 1.435 13.434 2.295 19.996 2.707 20.631 5.107 41.314 8.457 61.842 1.153 7.068 4.606 13.798 7.353 20.542.56 1.373 2.662 2.117 4.053 3.151.782-1.522 2.293-3.073 2.234-4.562-.694-17.432-1.078-34.904-2.699-52.258-.954-10.203-3.985-20.212-6.052-30.314-.32-1.566-.477-3.166-.709-4.751l1.886-.54c3.493 10.545 7.079 21.061 10.461 31.64 7.576 23.698 5.205 48.167 5.447 72.429.222 22.161.414 44.323.637 66.485a8.74 8.74 0 0 0 .618 3.207c10.059-55.233 4.713-111.076 6.205-166.726-.206 1.173-.667 2.364-.581 3.516 1.255 16.68 2.081 33.416 4.117 50.003.926 7.535 3.721 15.021 6.822 22.016 1.156 2.606 5.608 3.751 8.557 5.563 1.38-3.159 3.681-6.234 3.976-9.491 1.106-12.23.715-24.643 2.465-36.758 2.303-15.945 6.038-31.687 9.262-47.494 5.057-24.793 4.519-49.346-3.233-73.537-10.083-31.468-9.899-63.813-6.983-96.056 3.16-34.947 8.312-69.711 12.243-104.595 1.547-13.726 2.114-27.561 3.216-41.339.096-1.199.856-2.346 1.308-3.517v503.962H1.067V1.161h336.937C338 272.415 338 543.708 338 815z"/></g></svg>